<svg xmlns="http://www.w3.org/2000/svg" viewBox="0 0 128 128">
<defs>
<style>
  path { fill: #ffffff; }
</style>
</defs>
<path d="M53.14,26.26c2.48-1.5,5.55-2.42,8.4-1.36,1.14.43,2.28,1.59,3.38,2.15,3.27,1.66,6.68,1.31,9.77-.57.58-.35,2.33-2.11,2.82-1.77.61,2.74,1.96,5.58,2.01,8.34-2.75,3.22-7.35,4.78-11.47,3.16-1.3-.51-2.29-1.72-3.51-2.28-2.93-1.34-6.44-.64-9.03,1.08.82,1.72,1.06,6.22,2.85,7.08,1.68.8,4.43.01,6.31.04,16.29.23,39.9,3.73,53,13.83,14.27,11,8.51,23.41-5.24,31.01-24.82,13.72-73.53,13.79-98.07-.62-17.21-10.11-16.13-24.17.87-33.66,12.22-6.82,23.06-7.53,36.42-9.78,1.78-.3,2.78-.74,3-2.67l-6.3-23.2c2.29-2.53,6.24-3.64,9.69-3.26s5.66,3.79,9,3.65c1.93-.08,4.16-1.39,5.59-2.6.55-.46.65-1.3,1.56-1.31l2.42,7.94c-1.81,3.01-6.06,5.33-9.62,4.08-1.22-.43-2.05-1.37-3.07-1.93-3.07-1.67-6.17-1.87-9.46-.6-2.18.84-2.12,1.08-1.32,3.25ZM63.67,44.78c-1.66.45-4.05,7.85-3.58,9.41s5.05,1.46,6.38,1.17c.73-.16,1.36-1.03,1.47-1.7.21-1.26-2.17-7.88-3.25-8.67-.35-.26-.59-.32-1.02-.21ZM60.03,45.27c-3.37.97-6.54,3.19-8.75,5.85-3.24,3.91.17,4.64,3.86,4.31,2.84-.25,2.51-3.63,3.23-5.94.45-1.46,1.1-2.81,1.66-4.22ZM67.72,45.27c1.82,1.93,2,7.87,3.3,9.38.92,1.08,5.13,1.12,6.12.25,1.71-1.49-.11-3.38-1.19-4.57-2.1-2.31-5.13-4.32-8.22-5.07ZM52.61,46.31c-2.67.82-10.37,3.78-11.77,6-1.71,2.71,2.87,4,4.72,2.82.44-.28,2.82-4.35,3.61-5.3,1.06-1.27,2.4-2.24,3.44-3.52ZM75.14,46.31c.97.91,2.02,1.74,2.91,2.74,1.04,1.17,3.71,5.72,4.41,6.08,1.79.91,5.67.36,4.81-2.39-.6-1.95-9.82-6.03-12.14-6.43ZM43.07,47.61c-1.86.26-3.63.97-5.37,1.62-1.52.58-6.18,2.2-6.51,3.77-.36,1.7,1.43,3.02,2.97,2.12,2.7-2.84,5.65-5.31,8.91-7.51ZM84.69,47.86c3.67,1.6,6.35,4.6,9.08,7.35,2.29.97,3.97-1.99,2.15-3.41-1.54-1.2-8.32-3.7-10.36-4.14-.27-.06-.93-.26-.86.2ZM15.5,55.42h6.76c.25,0,3.31-2.51,3.92-2.92l6.42-3.85c-4.5.95-8.75,2.67-12.95,4.47l-4.15,2.31ZM112.25,55.42c-2.17-1.51-4.93-2.77-7.43-3.77-3.03-1.22-6.22-2.25-9.4-3l5.89,3.59c.73.29,3.84,3.18,4.18,3.18h6.76ZM17.81,58.35c-.76-.75-4.53-.75-5.64-.61-.64.08-2.87,2.02-3.44,2.61-2.17,2.26-3.76,5.01-4.37,8.07.32.03.61.18.94.21,1.52.14,6.47.23,7.91.02,3.03-.44,2.51-2.68,3.41-4.98.59-1.51,2.63-3.9,1.19-5.33ZM23.91,57.81c-1.73.39-4.89,5.86-5.31,7.54-.75,3.04,1.53,3.25,3.93,3.36,1.12.05,5.21-.05,5.95-.68.8-.68,1.12-3.61,1.46-4.81.43-1.52,2.31-4.03.24-5.17-.75-.41-5.32-.45-6.28-.24ZM36.1,57.81c-1.92.42-4.22,6.44-4.38,8.22-.12,1.34.76,2.29,2.06,2.54.7.13,4.68.08,5.57,0,1.43-.12,2.62,0,3.17-1.59.38-1.1.41-3.05.63-4.33.25-1.45,1.52-3.36-.09-4.5-.77-.54-5.9-.58-6.96-.34ZM45.53,67.84c.86,1.02,2.35.6,3.27.63,2.21.09,6.87.99,7.27-1.98.28-2.09.03-4.66.39-6.79-.19-1.35-1.1-1.84-2.37-1.96-1.48-.13-5.79-.26-6.78.65-1.23,1.12-2.82,8.18-1.77,9.44ZM60.49,57.81c-.52.12-1.1.56-1.32,1.05-.43.97-.83,5.91-.74,7.1.21,2.7,2.02,2.64,4.38,2.72.62.02,2.37.03,2.92,0,1.45-.08,3.36-.26,3.59-1.94.21-1.56,0-5.42-.29-7.03-.17-.94-1.03-1.8-1.99-1.95-1.03-.16-5.6-.17-6.55.04ZM72.94,57.81c-.95.21-1.42,1-1.52,1.89-.12,1.06.23,5.72.44,6.86.51,2.78,3.29,1.83,5.26,1.87,1.78.03,5.06.86,5.6-1.56.29-1.33-1.05-7.44-2-8.48-.42-.45-.86-.58-1.46-.65-1.15-.13-5.28-.16-6.31.06ZM85.67,57.81c-3.25.72-.03,6.64-.39,8.86.58,2.39,2.06,1.65,3.78,1.74,6.24.32,8.84.6,5.74-6.67-.61-1.44-1.62-3.8-3.36-3.99-1.07-.12-4.82-.15-5.78.06ZM108.99,67.83c.28-.33.48-1.08.47-1.52-.04-1.98-3.17-7.08-4.91-8.16-.94-.58-5.52-.61-6.55-.2-2.32.91-.81,2.83-.41,4.17.69,2.27.68,6.18,3.41,6.54,1.08.14,6.07,0,7.06-.31.24-.08.77-.34.92-.51ZM123.38,68.69c.42-.43-1.12-4.02-1.47-4.67-.85-1.56-4.62-6.05-6.33-6.28-1.28-.17-4.81-.24-5.57.8-1.2,1.64.36,2.88.92,4.29.45,1.13,1.32,4.76,1.93,5.26,1.13.95,7.26.43,9.01.39.48-.01,1.02.25,1.52.2ZM14.31,71.03H4.37c.63,3.45,2.71,6.62,5.3,8.98.26.23,1.92,1.6,2.05,1.64,1,.29,5.38.21,6.09-.55,1.43-1.54-.53-3.62-1.17-5.32-.49-1.3-.83-4.44-2.32-4.75ZM19.93,71.09c-2.91.64-.78,4.7.13,6.27.57.99,2.62,3.92,3.64,4.23.8.24,4.77.24,5.7.1,3.16-.48,1.03-3.8.55-5.45s-.56-4.95-2.64-5.22c-1.17-.15-6.33-.16-7.38.07ZM33.19,71.09c-2.7.59-.68,5.33.03,6.89.77,1.7,1.55,3.56,3.61,3.74s7.33.71,7.02-2.19c-1.29-2.34-.06-8.12-3.29-8.5-1.27-.15-6.24-.18-7.37.06ZM46.44,71.09c-2.3.66-.84,5.84-.32,7.49.34,1.07.73,2.63,1.97,3.01.84.25,5.51.25,6.49.1,2.4-.37,1.82-3.1,1.75-4.81-.05-1.04-.15-2.92-.29-3.88-.17-1.13-.79-1.84-1.97-1.97-1.07-.12-6.84-.17-7.64.06ZM59.96,71.09c-1.08.23-1.42,1.18-1.51,2.16-.1,1.08.14,4.02.27,5.2.11,1.03.32,2.62,1.39,3.06.8.33,5.87.33,6.96.2,2.26-.26,2.15-3.22,2.24-5.07.07-1.56.58-5.22-1.45-5.6-.96-.18-6.95-.15-7.89.05ZM73.21,71.09c-.48.14-1.11.91-1.23,1.39-.37,1.42-.5,4.88-.56,6.49-.03.95.05,1.94.97,2.45.86.47,7.04.47,7.89,0,1.03-.58,1.63-3.25,1.89-4.39.44-1.94,1.63-5.66-1.32-6-1.07-.12-6.84-.17-7.64.06ZM86.73,71.09c-.81.18-1.26.97-1.45,1.7-.36,1.4-.95,4.76-1.1,6.21-.11,1.05-.13,1.88.93,2.41.88.44,6.28.48,7.19.1,1.62-.69,6.01-9.85,2.04-10.46-1.14-.18-6.56-.19-7.61.04ZM108.99,71.63c-.36-.41-1.09-.56-1.63-.61-1.57-.14-5.11-.16-6.65.01-2.31.26-2.1,2.85-2.65,4.69-.69,2.33-2.9,5.65,1.05,6,1.22.11,4.49.17,5.44-.42,1.69-1.04,5.06-6.37,4.97-8.28-.01-.3-.33-1.17-.53-1.39ZM123.38,71.03h-9.94c-1.1,0-1.73,3.69-2.05,4.5-.67,1.69-3.49,5.41-.28,6.12.83.18,4.34.16,5.1-.09.97-.32,4.2-3.84,4.89-4.83,1.15-1.65,2.07-3.68,2.28-5.7ZM22.26,84.05h-6.76l5.58,2.98,12.05,4.05-5.04-2.86c-.97-.6-5.47-4.1-5.83-4.17ZM36.53,86.82c-1.15-1.05-2.92-4.27-4.87-2.13-2.4,2.65,3.42,4.55,5.24,5.28,2.14.86,4.45,1.6,6.7,2.14l-3.42-2.23c-1.19-1.03-2.48-2-3.64-3.06ZM45.9,84.65c-2.03-1.64-7.1-.19-4.96,2.66,1.78,2.37,8.76,4.95,11.67,5.85-2.68-2.54-5.03-5.2-6.71-8.51ZM60.03,94.2l-3.17-9.51c-1.78-1.12-7.69-1.36-6.79,1.97.43,1.6,4.62,5.02,6.17,5.93.52.3,3.53,1.87,3.79,1.61ZM67.38,84.64c-.95-.94-6.76-1.11-7.29.63-.45,1.48,1.48,7.08,2.48,8.39.53.69,1.21,1.48,2.12.82,1.08-.79,3.25-6.9,3.28-8.25,0-.4-.32-1.32-.59-1.59ZM67.72,94.2c4.53-.28,16.87-11.22,5.16-10.16-1.22.11-1.89.45-2.33,1.62-.99,2.64-.97,6.09-2.83,8.54ZM75.14,93.15c1.77-.42,3.75-1.1,5.39-1.86,1.52-.7,4.96-2.57,6.1-3.64,2.69-2.53-1.89-4.88-4.33-3.21-1.16.79-2.75,4.9-4.25,5.97l-2.91,2.74ZM84.42,92.11c2.03-.42,11.3-3.53,12-5,.59-1.25-.02-2.97-1.55-3.06-1.44-.09-3.7,3.01-4.88,4.04-1.72,1.49-3.78,2.62-5.57,4.03ZM112.25,84.05h-6.49c-.85,0-2.71,2.26-3.65,2.66l-6.68,4.11c5.37-1.37,11.26-3.31,16.04-6.11.29-.17.73-.26.79-.66Z"/>
</svg>