<svg xmlns="http://www.w3.org/2000/svg" viewBox="0 0 652.93 139.43">
<defs>
<style>
.cls-1 {
  fill: #ffffff;
}
</style>
</defs>
<g>
  <path class="cls-1" d="M83.8,21.24c4.05-2.5,9.09-4.03,13.76-2.26,1.87.71,3.74,2.64,5.54,3.58,5.36,2.77,10.93,2.18,15.99-.95.95-.59,3.81-3.52,4.62-2.95,1.01,4.56,3.2,9.31,3.29,13.89-4.49,5.36-12.04,7.96-18.78,5.27-2.12-.85-3.74-2.86-5.75-3.79-4.8-2.23-10.54-1.06-14.79,1.79,1.35,2.87,1.74,10.36,4.67,11.79,2.75,1.34,7.25.02,10.32.07,26.67.38,65.32,6.22,86.76,23.04,23.36,18.33,13.93,39-8.59,51.67-40.64,22.86-120.38,22.98-160.54-1.03-28.17-16.84-26.41-40.28,1.43-56.09,20.01-11.37,37.76-12.55,59.63-16.3,2.91-.5,4.55-1.23,4.91-4.44l-10.31-38.66c3.74-4.21,10.21-6.07,15.86-5.43,5.56.62,9.27,6.32,14.73,6.09,3.16-.13,6.82-2.32,9.16-4.33.89-.77,1.06-2.17,2.55-2.18l3.97,13.23c-2.96,5.01-9.93,8.88-15.74,6.8-2-.71-3.35-2.28-5.03-3.21-5.03-2.79-10.1-3.12-15.48-.99-3.57,1.41-3.47,1.8-2.17,5.42ZM101.02,52.1c-2.71.76-6.64,13.07-5.86,15.68s8.26,2.43,10.45,1.95c1.19-.26,2.22-1.71,2.4-2.84.34-2.09-3.55-13.13-5.32-14.45-.57-.43-.97-.54-1.67-.34ZM95.07,52.9c-5.52,1.61-10.71,5.31-14.33,9.75-5.31,6.52.28,7.74,6.32,7.19,4.65-.42,4.11-6.04,5.29-9.89.74-2.44,1.8-4.68,2.72-7.04ZM107.66,52.91c2.99,3.22,3.28,13.11,5.4,15.64,1.51,1.79,8.4,1.86,10.02.42,2.79-2.49-.18-5.62-1.95-7.61-3.43-3.85-8.4-7.2-13.46-8.44ZM82.92,54.64c-4.38,1.37-16.98,6.3-19.27,10-2.79,4.51,4.69,6.66,7.73,4.7.72-.46,4.61-7.25,5.91-8.84,1.73-2.11,3.92-3.74,5.63-5.86ZM119.81,54.64c1.59,1.52,3.3,2.9,4.76,4.56,1.71,1.94,6.08,9.53,7.23,10.13,2.94,1.52,9.28.6,7.88-3.98-.99-3.25-16.07-10.05-19.87-10.71ZM67.3,56.81c-3.04.44-5.94,1.61-8.79,2.71-2.49.96-10.12,3.66-10.66,6.28-.59,2.84,2.35,5.03,4.86,3.53,4.42-4.73,9.26-8.85,14.59-12.52ZM135.43,57.23c6,2.67,10.39,7.66,14.86,12.26,3.76,1.62,6.5-3.31,3.52-5.68-2.52-2-13.61-6.16-16.97-6.9-.43-.1-1.52-.44-1.41.33ZM22.17,69.82h11.06c.41,0,5.42-4.19,6.41-4.87l10.5-6.42c-7.36,1.59-14.33,4.45-21.19,7.44l-6.79,3.84ZM180.55,69.82c-3.55-2.52-8.08-4.61-12.16-6.28-4.95-2.03-10.18-3.75-15.39-5l9.64,5.98c1.2.49,6.29,5.3,6.85,5.3h11.06ZM25.96,74.71c-1.24-1.24-7.41-1.25-9.23-1.01-1.05.14-4.71,3.37-5.63,4.35-3.55,3.76-6.15,8.35-7.15,13.45.53.05,1,.3,1.54.35,2.49.24,10.6.39,12.95.03,4.97-.74,4.1-4.47,5.58-8.3.97-2.52,4.3-6.5,1.94-8.87ZM35.93,73.81c-2.84.64-8.01,9.77-8.69,12.56-1.23,5.06,2.51,5.41,6.43,5.6,1.83.09,8.52-.09,9.74-1.14,1.31-1.13,1.83-6.01,2.4-8.01.71-2.53,3.79-6.72.39-8.62-1.22-.69-8.71-.74-10.27-.39ZM55.89,73.81c-3.15.7-6.91,10.73-7.17,13.7-.19,2.23,1.24,3.82,3.37,4.23,1.15.22,7.66.13,9.11,0,2.34-.21,4.29-.01,5.19-2.65.63-1.83.66-5.08,1.03-7.21.41-2.42,2.49-5.6-.14-7.49-1.26-.91-9.66-.96-11.4-.57ZM71.34,90.51c1.4,1.7,3.85.99,5.35,1.05,3.62.15,11.25,1.66,11.9-3.3.46-3.48.05-7.76.63-11.31-.31-2.25-1.8-3.07-3.88-3.26-2.43-.22-9.48-.43-11.1,1.09-2.01,1.87-4.61,13.64-2.89,15.73ZM95.82,73.81c-.86.19-1.8.94-2.15,1.75-.7,1.62-1.36,9.86-1.21,11.84.34,4.5,3.3,4.39,7.17,4.54,1.01.04,3.88.05,4.78,0,2.37-.14,5.51-.43,5.88-3.23.35-2.6-.01-9.03-.48-11.71-.27-1.56-1.69-3-3.26-3.25-1.69-.27-9.16-.28-10.73.07ZM116.21,73.81c-1.55.35-2.32,1.66-2.49,3.15-.2,1.76.38,9.53.72,11.44.84,4.64,5.38,3.06,8.61,3.11,2.91.05,8.29,1.44,9.16-2.59.48-2.22-1.72-12.4-3.28-14.13-.68-.75-1.41-.97-2.39-1.08-1.88-.22-8.65-.27-10.33.1ZM137.04,73.81c-5.32,1.19-.06,11.07-.63,14.76.95,3.98,3.37,2.75,6.19,2.9,10.22.52,14.47.99,9.4-11.11-1-2.4-2.65-6.32-5.49-6.65-1.76-.2-7.89-.25-9.46.1ZM175.22,90.51c.46-.54.78-1.8.77-2.53-.07-3.31-5.19-11.8-8.03-13.59-1.53-.97-9.04-1.01-10.72-.34-3.81,1.52-1.33,4.72-.67,6.95,1.13,3.78,1.11,10.3,5.59,10.89,1.77.23,9.94,0,11.55-.52.4-.13,1.26-.57,1.51-.86ZM198.78,91.93c.69-.71-1.83-6.7-2.41-7.78-1.38-2.6-7.56-10.08-10.36-10.46-2.1-.28-7.88-.4-9.13,1.34-1.97,2.74.59,4.8,1.51,7.14.74,1.89,2.16,7.92,3.15,8.77,1.85,1.59,11.88.72,14.75.66.78-.02,1.66.42,2.49.34ZM20.22,95.84H3.95c1.04,5.74,4.43,11.04,8.67,14.97.42.39,3.14,2.66,3.35,2.73,1.63.48,8.81.36,9.97-.92,2.35-2.57-.86-6.03-1.92-8.87-.81-2.16-1.36-7.39-3.8-7.91ZM29.43,95.93c-4.77,1.07-1.27,7.84.21,10.45.94,1.66,4.29,6.53,5.97,7.05,1.31.4,7.81.4,9.33.17,5.17-.81,1.68-6.34.9-9.08s-.91-8.25-4.32-8.7c-1.91-.25-10.37-.27-12.08.12ZM51.12,95.93c-4.42.99-1.11,8.88.05,11.48,1.26,2.84,2.54,5.92,5.91,6.23s12,1.18,11.5-3.65c-2.12-3.9-.1-13.54-5.39-14.17-2.08-.25-10.22-.31-12.07.1ZM72.82,95.93c-3.76,1.1-1.38,9.73-.52,12.49.56,1.79,1.19,4.39,3.23,5.01,1.37.42,9.02.42,10.63.17,3.92-.62,2.99-5.16,2.86-8.02-.07-1.74-.24-4.86-.48-6.46-.28-1.88-1.3-3.06-3.22-3.29-1.76-.21-11.19-.29-12.5.1ZM94.95,95.93c-1.77.39-2.33,1.97-2.48,3.59-.17,1.8.23,6.7.44,8.67.18,1.72.52,4.36,2.27,5.1,1.3.55,9.6.55,11.4.33,3.7-.44,3.53-5.37,3.66-8.45.11-2.6.96-8.7-2.38-9.34-1.57-.3-11.38-.26-12.91.08ZM116.64,95.93c-.78.23-1.81,1.52-2.02,2.32-.61,2.36-.82,8.13-.92,10.81-.06,1.59.08,3.23,1.6,4.08,1.4.79,11.53.79,12.92,0,1.69-.96,2.67-5.42,3.09-7.32.72-3.23,2.66-9.43-2.16-9.99-1.75-.2-11.19-.28-12.5.1ZM138.77,95.93c-1.32.29-2.06,1.61-2.37,2.83-.6,2.33-1.55,7.93-1.8,10.35-.18,1.75-.21,3.13,1.53,4.02,1.44.73,10.29.81,11.77.17,2.65-1.15,9.84-16.41,3.34-17.43-1.87-.29-10.74-.32-12.47.07ZM175.22,96.83c-.58-.69-1.78-.94-2.66-1.02-2.57-.24-8.36-.27-10.88.02-3.79.44-3.44,4.75-4.33,7.82-1.12,3.88-4.75,9.42,1.71,10,2,.18,7.36.28,8.9-.69,2.76-1.74,8.28-10.61,8.13-13.8-.02-.49-.54-1.94-.86-2.32ZM198.78,95.84h-16.27c-1.8,0-2.83,6.15-3.35,7.49-1.09,2.82-5.72,9.02-.46,10.2,1.36.3,7.11.27,8.35-.15,1.59-.54,6.88-6.4,8.01-8.04,1.89-2.76,3.39-6.13,3.73-9.5ZM33.24,117.53h-11.06l9.13,4.97,19.72,6.74-8.25-4.77c-1.58-1-8.96-6.82-9.54-6.95ZM56.61,122.14c-1.88-1.75-4.79-7.11-7.97-3.54-3.93,4.41,5.59,7.59,8.57,8.8,3.51,1.43,7.28,2.67,10.96,3.57l-5.6-3.72c-1.95-1.72-4.06-3.34-5.96-5.1ZM71.94,118.53c-3.32-2.74-11.63-.31-8.12,4.43,2.92,3.94,14.33,8.25,19.1,9.74-4.38-4.24-8.23-8.67-10.98-14.17ZM95.07,134.44l-5.18-15.85c-2.91-1.87-12.58-2.27-11.11,3.28.71,2.67,7.56,8.37,10.09,9.89.84.51,5.77,3.12,6.21,2.68ZM107.1,118.51c-1.56-1.56-11.07-1.86-11.94,1.05-.74,2.47,2.42,11.79,4.06,13.98.86,1.15,1.98,2.46,3.47,1.36,1.76-1.31,5.32-11.5,5.37-13.74.02-.67-.52-2.2-.97-2.65ZM107.66,134.44c7.42-.46,27.61-18.7,8.44-16.93-1.99.18-3.09.74-3.81,2.7-1.62,4.4-1.6,10.14-4.63,14.23ZM119.81,132.7c2.91-.7,6.13-1.83,8.83-3.09,2.49-1.16,8.11-4.28,9.98-6.07,4.4-4.22-3.1-8.12-7.09-5.35-1.89,1.32-4.49,8.16-6.96,9.95l-4.76,4.56ZM134.99,130.97c3.32-.71,18.5-5.89,19.64-8.34.97-2.08-.03-4.95-2.53-5.1-2.35-.14-6.06,5.02-7.99,6.73-2.82,2.49-6.19,4.37-9.12,6.71ZM180.55,117.53h-10.63c-1.39,0-4.43,3.77-5.98,4.43l-10.94,6.85c8.79-2.28,18.44-5.52,26.26-10.19.47-.28,1.19-.44,1.29-1.09Z"/>
</g>
<g>
  <path class="cls-1" d="M225.03,60.84h16.55c9.63,0,15.82,5.7,15.82,14.6s-6.19,14.61-15.82,14.61h-16.55v-29.21ZM241.59,82.54c3.96,0,6.61-2.89,6.61-7.13s-2.64-7.06-6.61-7.06h-7.37v14.19h7.37Z"/>
  <path class="cls-1" d="M260.89,60.84h27.58v7.3h-18.4v3.76h15.27v6.47h-15.27v4.38h18.4v7.3h-27.58v-29.21Z"/>
  <path class="cls-1" d="M303.01,60.84h19.68c6.68,0,10.08,2.5,10.08,7.48,0,3.48-1.67,5.74-5.18,6.85,3.96,1.04,5.95,3.48,5.95,7.3,0,4.59-2.82,7.58-9.88,7.58h-20.66v-29.21ZM320.08,72.7c2.61,0,3.51-.8,3.51-2.4s-.97-2.36-3.51-2.36h-7.89v4.76h7.89ZM321.02,82.96c2.4,0,3.34-.87,3.34-2.36,0-1.6-.9-2.4-3.34-2.4h-8.83v4.76h8.83Z"/>
  <path class="cls-1" d="M336.68,60.84h19.33c6.99,0,11.55,3.58,11.55,9.04,0,4.03-2.47,7.02-6.09,7.86,1.5.77,2.68,1.84,3.44,3.3l4.66,9.01h-9.91l-4-7.79c-.87-1.67-1.84-2.09-5.01-2.09h-4.8v9.88h-9.18v-29.21ZM354.48,74.13c2.5,0,3.89-1.04,3.89-2.92s-1.46-2.85-3.89-2.85h-8.62v5.77h8.62Z"/>
  <path class="cls-1" d="M382.41,60.84h14.92l11.79,29.21h-9.81l-2.43-6.33h-14.05l-2.43,6.33h-9.77l11.79-29.21ZM394.27,76.98l-3.37-8.69h-2.09l-3.37,8.69h8.83Z"/>
  <path class="cls-1" d="M411.21,60.84h19.68c6.68,0,10.08,2.5,10.08,7.48,0,3.48-1.67,5.74-5.18,6.85,3.96,1.04,5.95,3.48,5.95,7.3,0,4.59-2.82,7.58-9.88,7.58h-20.66v-29.21ZM428.28,72.7c2.61,0,3.51-.8,3.51-2.4s-.97-2.36-3.51-2.36h-7.89v4.76h7.89ZM429.22,82.96c2.4,0,3.34-.87,3.34-2.36,0-1.6-.9-2.4-3.34-2.4h-8.83v4.76h8.83Z"/>
  <path class="cls-1" d="M454.58,60.84h14.92l11.79,29.21h-9.81l-2.43-6.33h-14.05l-2.43,6.33h-9.77l11.79-29.21ZM466.44,76.98l-3.37-8.69h-2.09l-3.37,8.69h8.83Z"/>
  <path class="cls-1" d="M483.38,60.84h11.51l11.27,17.91v-17.91h8.76v29.21h-11.51l-11.27-18.05v18.05h-8.76v-29.21Z"/>
  <path class="cls-1" d="M529.6,68.36h-12.24v-7.51h33.63v7.51h-12.21v21.7h-9.18v-21.7Z"/>
  <path class="cls-1" d="M567.72,60.43c9.67,0,14.99,3.62,14.99,10.26h-9.32c0-2.4-2.5-3.58-6.09-3.58s-5.32,1.11-5.32,2.75c0,1.77,2.43,2.12,5.32,2.33,6.71.52,15.89.35,15.89,8.07,0,6.85-5.32,10.22-15.16,10.22-10.33,0-15.65-3.72-15.65-10.4h9.35c0,2.47,2.33,3.72,6.89,3.72,3.62,0,5.32-.8,5.32-2.4,0-2.12-2.96-2.43-6.78-2.68-6.09-.38-14.4-.59-14.4-8.76,0-6.05,5.46-9.53,14.95-9.53Z"/>
  <path class="cls-1" d="M586.33,60.84h27.58v7.3h-18.4v3.76h15.27v6.47h-15.27v4.38h18.4v7.3h-27.58v-29.21Z"/>
  <path class="cls-1" d="M230.56,103.17h-7.27v-7.55h16.45v29.21h-9.18v-21.66Z"/>
  <path class="cls-1" d="M249.45,103.17h-7.27v-7.55h16.45v29.21h-9.18v-21.66Z"/>
  <path class="cls-1" d="M288.23,95.21c9.67,0,14.99,3.62,14.99,10.26h-9.32c0-2.4-2.5-3.58-6.09-3.58s-5.32,1.11-5.32,2.75c0,1.77,2.43,2.12,5.32,2.33,6.71.52,15.89.35,15.89,8.07,0,6.85-5.32,10.22-15.16,10.22-10.33,0-15.65-3.72-15.65-10.4h9.35c0,2.47,2.33,3.72,6.89,3.72,3.62,0,5.32-.8,5.32-2.4,0-2.12-2.96-2.43-6.78-2.68-6.09-.38-14.4-.59-14.4-8.76,0-6.05,5.46-9.53,14.95-9.53Z"/>
  <path class="cls-1" d="M317.34,103.14h-12.24v-7.51h33.63v7.51h-12.21v21.7h-9.18v-21.7Z"/>
  <path class="cls-1" d="M341.16,95.62h27.58v7.3h-18.4v3.76h15.27v6.47h-15.27v4.38h18.4v7.3h-27.58v-29.21Z"/>
  <path class="cls-1" d="M372.15,95.62h16.55c9.63,0,15.82,5.7,15.82,14.6s-6.19,14.61-15.82,14.61h-16.55v-29.21ZM388.7,117.32c3.96,0,6.61-2.89,6.61-7.13s-2.64-7.06-6.61-7.06h-7.37v14.19h7.37Z"/>
  <path class="cls-1" d="M408.01,95.62h27.58v7.3h-18.4v3.76h15.27v6.47h-15.27v4.38h18.4v7.3h-27.58v-29.21Z"/>
  <path class="cls-1" d="M439,95.62h11.51l11.27,17.91v-17.91h8.76v29.21h-11.51l-11.27-18.05v18.05h-8.76v-29.21Z"/>
  <path class="cls-1" d="M485.22,103.14h-12.24v-7.51h33.63v7.51h-12.21v21.7h-9.18v-21.7Z"/>
  <path class="cls-1" d="M525.6,95.21c11.41,0,17.6,5.88,17.6,15.02s-6.19,15.02-17.6,15.02-17.6-5.88-17.6-15.02,6.15-15.02,17.6-15.02ZM525.6,117.53c5.81,0,8.35-2.78,8.35-7.3s-2.54-7.3-8.35-7.3-8.38,2.78-8.38,7.3,2.54,7.3,8.38,7.3Z"/>
  <path class="cls-1" d="M568.83,113.43h9.18c0,7.23-6.22,11.82-15.68,11.82-10.36,0-17.04-5.88-17.04-15.02s6.68-15.02,17.04-15.02c9.46,0,15.68,4.59,15.68,11.82h-9.18c-.35-2.57-2.61-4.31-6.57-4.31-4.94,0-7.75,2.71-7.75,7.48s3.03,7.55,8.03,7.55c3.79,0,5.95-1.74,6.29-4.31Z"/>
  <path class="cls-1" d="M581.14,95.62h9.18v10.29h12.73v-10.29h9.18v29.21h-9.18v-11.41h-12.73v11.41h-9.18v-29.21Z"/>
  <path class="cls-1" d="M626.91,103.14h-12.24v-7.51h33.63v7.51h-12.21v21.7h-9.18v-21.7Z"/>
  <path class="cls-1" d="M648.37,116c2.85,0,4.56,1.7,4.56,4.56s-1.7,4.62-4.56,4.62-4.59-1.7-4.59-4.62,1.7-4.56,4.59-4.56Z"/>
</g>
</svg>